# xmcd
#
# Track frame offsets:
#	150
#	23878
#	48242
#	75969
#	102802
#	135093
#	161444
#	189197
#	210498
#	236226
#	267424
#	295185
#
# Disc length: 4064 seconds
#
# Revision: 0
# Processed by: cddbd v1.5.2PL0 Copyright (c) Steve Scherf et al.
# Submitted via: EZCDAudioConverter 6.0.9.1
#
DISCID=910fde0c
DTITLE=Mama Longhorn - Age Two
DYEAR=2017
DGENRE=
TTITLE0=Anthem Seraphinianus
TTITLE1=Moose Fly
TTITLE2=Age One
TTITLE3=Brand New Room
TTITLE4=Encounter in the Dark
TTITLE5=Swindled
TTITLE6=See Mama Play feat. Thelo Ekow
TTITLE7=Saunamies
TTITLE8=Baby Rhino
TTITLE9=Against feat. Thelo Ekow
TTITLE10=Janitor Bill
TTITLE11=Methan Codex
EXTD=
EXTT0=
EXTT1=
EXTT2=
EXTT3=
EXTT4=
EXTT5=
EXTT6=
EXTT7=
EXTT8=
EXTT9=
EXTT10=
EXTT11=
PLAYORDER=
